<?xml version="1.0" standalone="no"?>
<!DOCTYPE svg PUBLIC "-//W3C//DTD SVG 20010904//EN"
 "http://www.w3.org/TR/2001/REC-SVG-20010904/DTD/svg10.dtd">
<svg version="1.0" xmlns="http://www.w3.org/2000/svg"
 width="486.000000pt" height="88.000000pt" viewBox="0 0 486.000000 88.000000"
 preserveAspectRatio="xMidYMid meet">

<g transform="translate(0.000000,88.000000) scale(0.100000,-0.100000)"
fill="#000000" stroke="none">
<path d="M4385 853 c-101 -14 -209 -73 -265 -143 -168 -212 -100 -519 140
-634 54 -26 80 -31 152 -34 165 -7 283 56 373 199 73 114 74 292 3 408 -37 59
-110 131 -158 156 -73 37 -178 57 -245 48z m165 -138 c115 -58 175 -152 174
-271 -1 -85 -27 -148 -86 -205 -60 -58 -118 -82 -202 -83 -330 -1 -409 451
-100 569 51 19 167 14 214 -10z"/>
<path d="M4335 671 c-51 -23 -118 -98 -133 -149 -37 -122 18 -244 133 -298 86
-41 185 -25 263 42 94 80 103 245 19 341 -67 76 -193 105 -282 64z m193 -87
c33 -25 72 -98 72 -138 0 -52 -38 -114 -86 -142 -37 -22 -54 -26 -95 -22 -87
9 -140 65 -147 155 -3 49 0 64 20 93 13 19 39 45 58 58 29 20 44 23 93 20 36
-3 67 -12 85 -24z"/>
<path d="M4366 514 c-39 -40 -37 -103 5 -138 54 -45 123 -30 149 33 39 94 -82
176 -154 105z"/>
<path d="M1060 445 l0 -285 45 0 45 0 0 285 0 285 -45 0 -45 0 0 -285z"/>
<path d="M1270 710 c-11 -11 -20 -29 -20 -40 0 -11 9 -29 20 -40 11 -11 29
-20 40 -20 11 0 29 9 40 20 11 11 20 29 20 40 0 11 -9 29 -20 40 -11 11 -29
20 -40 20 -11 0 -29 -9 -40 -20z"/>
<path d="M1460 445 l0 -285 45 0 45 0 0 91 c0 90 0 90 25 87 18 -2 39 -25 82
-88 l58 -85 55 -3 c51 -3 53 -2 39 15 -9 10 -44 60 -78 110 l-63 93 53 62 c29
35 62 73 73 86 l19 22 -50 0 -50 0 -62 -75 c-39 -48 -69 -75 -81 -75 -19 0
-20 7 -20 165 l0 165 -45 0 -45 0 0 -285z"/>
<path d="M2661 704 c-12 -15 -21 -30 -21 -34 0 -16 43 -60 59 -60 28 0 61 30
61 56 0 29 -32 64 -59 64 -11 0 -29 -12 -40 -26z"/>
<path d="M2870 710 c-11 -11 -20 -29 -20 -40 0 -11 9 -29 20 -40 11 -11 29
-20 40 -20 11 0 29 9 40 20 11 11 20 29 20 40 0 11 -9 29 -20 40 -11 11 -29
20 -40 20 -11 0 -29 -9 -40 -20z"/>
<path d="M142 458 c-56 -145 -104 -271 -108 -280 -5 -16 0 -18 39 -18 51 0 57
6 85 80 l20 55 115 3 114 3 23 -60 c27 -74 38 -83 88 -79 l40 3 -107 277 -106
278 -51 0 -51 0 -101 -262z m198 33 c22 -62 40 -115 40 -117 0 -2 -38 -4 -85
-4 -47 0 -85 4 -85 8 0 5 16 54 36 108 19 54 38 105 40 113 7 21 10 15 54
-108z"/>
<path d="M3561 649 c-44 -38 -81 -73 -81 -78 0 -7 38 -51 44 -51 2 0 23 16 47
35 24 19 47 35 52 35 4 0 6 -80 5 -177 l-3 -178 -57 -3 -58 -3 0 -34 0 -35
150 0 150 0 0 34 c0 34 -1 35 -47 38 l-48 3 -3 243 -2 242 -34 0 c-27 0 -49
-14 -115 -71z"/>
<path d="M620 290 l0 -260 45 0 45 0 0 81 0 80 22 -15 c34 -24 118 -21 159 7
100 66 108 271 13 346 -39 31 -126 26 -170 -8 l-29 -22 -8 25 c-7 21 -15 26
-43 26 l-34 0 0 -260z m237 163 c13 -19 18 -47 18 -94 0 -88 -23 -123 -83
-127 -74 -6 -82 5 -82 110 0 80 3 95 22 115 33 35 101 33 125 -4z"/>
<path d="M1260 355 l0 -195 45 0 45 0 0 195 0 195 -45 0 -45 0 0 -195z"/>
<path d="M1940 528 c-50 -26 -56 -36 -36 -63 14 -19 15 -19 50 -2 53 25 111
23 130 -5 9 -12 16 -32 16 -44 0 -18 -7 -22 -55 -28 -119 -14 -175 -56 -175
-131 0 -36 5 -48 31 -69 41 -35 106 -36 164 -1 l42 24 11 -24 c9 -19 19 -25
43 -25 l31 0 -4 147 c-4 164 -14 200 -68 228 -44 23 -128 19 -180 -7z m160
-233 c0 -37 -21 -58 -73 -70 -37 -10 -79 18 -75 48 4 28 60 57 111 57 36 0 37
-1 37 -35z"/>
<path d="M2355 531 c-16 -10 -40 -29 -51 -42 -68 -76 -52 -244 30 -302 46 -32
167 -32 214 1 36 26 37 29 17 56 -14 19 -16 19 -50 3 -52 -25 -101 -22 -130 7
-47 47 -42 176 8 211 25 18 86 20 121 3 22 -9 29 -8 46 7 16 14 17 21 8 32
-37 45 -157 59 -213 24z"/>
<path d="M2660 355 l0 -195 45 0 45 0 0 195 0 195 -45 0 -45 0 0 -195z"/>
<path d="M2860 332 c0 -231 -2 -242 -47 -242 -20 0 -23 -5 -23 -35 0 -34 1
-35 40 -35 21 0 51 5 65 12 50 23 55 47 55 293 l0 225 -45 0 -45 0 0 -218z"/>
<path d="M3115 529 c-55 -27 -58 -33 -36 -60 19 -23 19 -23 55 -6 44 20 109
22 125 4 6 -8 14 -28 17 -45 6 -30 5 -32 -23 -32 -16 0 -56 -7 -88 -16 -100
-25 -142 -85 -111 -157 18 -44 41 -57 104 -57 36 0 59 7 86 25 20 14 38 25 40
25 2 0 7 -11 10 -25 5 -20 13 -25 37 -25 l30 0 -3 161 -3 161 -37 34 c-35 31
-43 34 -100 34 -42 -1 -76 -7 -103 -21z m165 -227 c0 -52 -71 -93 -124 -72
-46 17 -27 79 29 93 11 2 37 5 58 6 34 1 37 -1 37 -27z"/>
</g>
</svg>
